<svg width="436.39373779296875px" height="129.182568359375px" xmlns="http://www.w3.org/2000/svg" viewBox="0 0 500 150" style="background: rgba(0, 0, 0, 0);"><defs><filter id="editing-golden" x="-100%" y="-100%" width="300%" height="300%"><feFlood flood-color="#806527" result="flood"></feFlood><feFlood flood-color="#fff694" result="flood-light"></feFlood><feComposite operator="in" in="flood" in2="SourceAlpha" result="flood-comp"></feComposite><feGaussianBlur in="flood-comp" stdDeviation="3" result="blur"></feGaussianBlur><feOffset in="blur" dy="3" result="offset-blur"></feOffset><feComponentTransfer in="offset-blur" result="comp-blur"><feFuncA type="linear" slope="0.7" intercept="-0.1"></feFuncA></feComponentTransfer><feSpecularLighting surfaceScale="200" specularConstant="20" specularExponent="1" lighting-color="#fff" in="blur" result="specular"><fePointLight x="-250" y="-250" z="3500"></fePointLight></feSpecularLighting><feComponentTransfer in="specular" result="inspecular"><feFuncA type="linear" slope="-1" intercept="1"></feFuncA></feComponentTransfer><feComposite operator="in" in="flood-light" in2="inspecular" result="inspecular2"></feComposite><feComposite operator="in" in="inspecular2" in2="SourceAlpha" result="light"></feComposite><feMerge><feMergeNode in="comp-blur"></feMergeNode><feMergeNode in="SourceGraphic"></feMergeNode><feMergeNode in="light"></feMergeNode></feMerge></filter></defs><g filter="url(#editing-golden)"><g transform="translate(95.4571886062622, 99.92437553405762)"><path d="M10.75-16.56L10.75-16.56L10.75-16.56Q10.34-13.31 10.34-11.39L10.34-11.39L10.34-11.39Q10.34-9.47 10.81-7.84L10.81-7.84L10.81-7.84Q11.28-6.22 12.16-5.03L12.16-5.03L12.16-5.03Q14.03-2.50 16.91-2.50L16.91-2.50L16.91-2.50Q22.41-2.50 22.41-8.56L22.41-8.56L22.41-8.56Q22.41-13.44 16.75-18.91L16.75-18.91L13.50-22.06L13.50-22.06Q9.22-26.19 7.66-28.69L7.66-28.69L7.66-28.69Q4.56-33.63 4.56-38.50L4.56-38.50L4.56-38.50Q4.56-42.47 7.13-45.16L7.13-45.16L7.13-45.16Q10.22-48.44 16.03-48.44L16.03-48.44L16.03-48.44Q18.31-48.44 19.47-48.22L19.47-48.22L19.47-48.22Q21.63-47.81 22.34-47.81L22.34-47.81L22.34-47.81Q24.16-47.81 25.16-48.94L25.16-48.94L25.16-48.94Q25.53-49.34 25.97-50L25.97-50L25.97-50Q28.25-48.72 28.25-40.59L28.25-40.59L28.25-40.59Q28.25-35.41 27.22-32.94L27.22-32.94L27.22-32.94Q26.88-32.09 26.44-31.88L26.44-31.88L26.44-31.88Q25.94-36.59 23.38-40.31L23.38-40.31L23.38-40.31Q20.38-44.69 16.44-44.69L16.44-44.69L16.44-44.69Q13.06-44.69 12.28-41.59L12.28-41.59L12.28-41.59Q12.06-40.72 12.06-39.42L12.06-39.42L12.06-39.42Q12.06-38.13 12.84-36.47L12.84-36.47L12.84-36.47Q13.63-34.81 14.89-33.17L14.89-33.17L14.89-33.17Q16.16-31.53 17.81-29.88L17.81-29.88L17.81-29.88Q22.81-24.75 24.45-22.94L24.45-22.94L24.45-22.94Q26.09-21.13 27.38-19.19L27.38-19.19L27.38-19.19Q30.19-14.84 30.19-10.78L30.19-10.78L30.19-10.78Q30.19-5.88 26.38-2.66L26.38-2.66L26.38-2.66Q22.44 0.63 16.25 0.63L16.25 0.63L16.25 0.63Q11.13 0.63 7.44-1.94L7.44-1.94L7.44-1.94Q3.38-4.75 3.38-9.38L3.38-9.38L3.38-9.38Q4.59-13.72 8.69-15.75L8.69-15.75L8.69-15.75Q9.78-16.31 10.75-16.56ZM33.34-33.75L33.34-33.75L33.34-33.75Q32.59-35.56 32.59-38.03L32.59-38.03L32.59-38.03Q32.59-40.50 32.78-42.08L32.78-42.08L32.78-42.08Q32.97-43.66 33.28-44.94L33.28-44.94L33.28-44.94Q34.03-47.81 35.13-47.81L35.13-47.81L62.66-47.81L62.66-47.81Q64.47-47.81 65.09-42.44L65.09-42.44L65.09-42.44Q65.25-40.94 65.25-39.34L65.25-39.34L65.25-39.34Q65.25-35.59 64.44-33.75L64.44-33.75L64.44-33.75Q61.75-42.09 57.47-44.44L57.47-44.44L57.47-44.44Q56.50-45 55.56-45L55.56-45L55.56-45Q54.63-45 54.09-44.52L54.09-44.52L54.09-44.52Q53.56-44.03 53.22-42.97L53.22-42.97L53.22-42.97Q52.66-41.09 52.66-38.47L52.66-38.47L52.66-26.75L52.69-17.19L52.69-8.13L52.69-8.13Q52.69-5.06 53.48-3.61L53.48-3.61L53.48-3.61Q54.28-2.16 55.11-1.41L55.11-1.41L55.11-1.41Q55.94-0.66 57.06 0L57.06 0L41.09 0L41.09 0Q43.34-1.84 43.97-3.03L43.97-3.03L43.97-3.03Q45.13-5.19 45.13-8.13L45.13-8.13L45.13-36.28L45.13-36.28Q45.13-41.19 44.75-42.61L44.75-42.61L44.75-42.61Q44.38-44.03 43.84-44.52L43.84-44.52L43.84-44.52Q43.31-45 42.38-45L42.38-45L42.38-45Q41.44-45 40.47-44.45L40.47-44.45L40.47-44.45Q39.50-43.91 38.58-43.02L38.58-43.02L38.58-43.02Q37.66-42.13 36.83-40.95L36.83-40.95L36.83-40.95Q36-39.78 35.31-38.53L35.31-38.53L35.31-38.53Q33.97-36.06 33.34-33.75ZM76.47-7.53L76.47-12.03L76.50-18.56L76.50-22.13L76.50-22.13Q76.50-24.94 74.19-30.13L74.19-30.13L74.19-30.13Q72.41-34.03 71.78-35.28L71.78-35.28L70.75-37.34L70.75-37.34Q66.72-45.78 63.69-47.81L63.69-47.81L76.28-47.81L76.28-47.81Q76.06-47.19 76.06-46.22L76.06-46.22L76.06-46.22Q76.06-45.25 76.22-44.17L76.22-44.17L76.22-44.17Q76.38-43.09 76.63-41.97L76.63-41.97L76.63-41.97Q77.09-39.81 77.84-38L77.84-38L79.34-34.38L79.34-34.38Q80.13-32.56 81.28-30.69L81.28-30.69L81.28-30.69Q82.75-32.91 83.63-35.03L83.63-35.03L84.81-37.97L84.81-37.97Q86.59-42.50 86.59-46.59L86.59-46.59L86.59-46.59Q86.59-47.28 86.50-47.81L86.50-47.81L95.09-47.81L95.09-47.81Q93.38-46 91.50-42.53L91.50-42.53L91.50-42.53Q89.63-39.06 88.88-37.50L88.88-37.50L87.28-34.03L87.28-34.03Q84.03-26.84 84.03-22.53L84.03-22.53L84.03-8.25L84.03-8.25Q84.03-5.06 84.78-3.66L84.78-3.66L84.78-3.66Q85.53-2.25 86.38-1.47L86.38-1.47L86.38-1.47Q87.22-0.69 88.41 0L88.41 0L72.44 0L72.44 0Q76.47-2.06 76.47-7.53L76.47-7.53ZM121.22-11.56L121.22-11.56L121.22-11.56Q122.06-10.34 122.06-8.63L122.06-8.63L122.06-8.63Q122.06-6.91 121.83-5.66L121.83-5.66L121.83-5.66Q121.59-4.41 121.19-3.28L121.19-3.28L121.19-3.28Q120.25-0.81 118.81 0L118.81 0L93.69 0L93.69 0Q96.16-1.53 96.91-2.66L96.91-2.66L96.91-2.66Q98.34-4.78 98.34-8.16L98.34-8.16L98.34-8.16Q98.31-16.47 98.31-23.19L98.31-23.19L98.31-39.56L98.31-39.56Q98.31-44.09 96.81-46.22L96.81-46.22L96.81-46.22Q96.28-47 95.50-47.81L95.50-47.81L108.34-47.81L108.34-47.81Q106.50-45.16 106.25-42.34L106.25-42.34L106.25-42.34Q106.19-41.41 106.19-40.28L106.19-40.28L106.19-11.66L106.19-11.66Q106.19-5.81 106.81-4.67L106.81-4.67L106.81-4.67Q107.44-3.53 108.31-3.33L108.31-3.33L108.31-3.33Q109.19-3.13 110.97-3.13L110.97-3.13L110.97-3.13Q112.75-3.13 114.34-3.75L114.34-3.75L114.34-3.75Q115.94-4.38 117.19-5.50L117.19-5.50L117.19-5.50Q119.31-7.44 121.22-11.56ZM149.66-11.56L149.66-11.56L149.66-11.56Q150.50-10.41 150.50-8.22L150.50-8.22L150.50-8.22Q150.50-6.03 150.31-4.73L150.31-4.73L150.31-4.73Q150.13-3.44 149.72-2.38L149.72-2.38L149.72-2.38Q148.78 0 147.25 0L147.25 0L121.94 0L121.94 0Q124.34-1.28 125.13-2.47L125.13-2.47L125.13-2.47Q126.59-4.69 126.59-8.09L126.59-8.09L126.59-8.09Q126.56-16.44 126.56-23.19L126.56-23.19L126.56-39.63L126.56-39.63Q126.56-44.28 125.09-46.38L125.09-46.38L125.09-46.38Q124.53-47.13 123.75-47.81L123.75-47.81L147.25-47.81L147.25-47.81Q149.38-47.06 150.16-42.56L150.16-42.56L150.16-42.56Q150.38-41.31 150.38-40.13L150.38-40.13L150.38-40.13Q150.38-37.69 149.66-36.25L149.66-36.25L147.97-39.63L147.97-39.63Q146.28-42.94 143.13-44.06L143.13-44.06L143.13-44.06Q141.38-44.69 139.19-44.69L139.19-44.69L139.19-44.69Q137-44.69 136.06-44.55L136.06-44.55L136.06-44.55Q135.13-44.41 134.63-43.88L134.63-43.88L134.63-43.88Q133.81-42.97 133.81-40.42L133.81-40.42L133.81-40.42Q133.81-37.88 133.94-36.89L133.94-36.89L133.94-36.89Q134.06-35.91 134.53-35.28L134.53-35.28L134.53-35.28Q135.50-34.06 138.63-34.06L138.63-34.06L148.44-34.06L148.44-34.06Q147.72-32.25 146.97-31.50L146.97-31.50L146.97-31.50Q145.47-30 142.91-30L142.91-30L142.91-30Q141.91-30 141-30.22L141-30.22L141-30.22Q139.31-30.63 138.03-30.63L138.03-30.63L138.03-30.63Q136.75-30.63 135.92-30.39L135.92-30.39L135.92-30.39Q135.09-30.16 134.63-29.66L134.63-29.66L134.63-29.66Q133.81-28.78 133.81-26.50L133.81-26.50L133.81-11.59L133.81-11.59Q133.81-5.72 134.47-4.63L134.47-4.63L134.47-4.63Q135.13-3.53 136.06-3.33L136.06-3.33L136.06-3.33Q137-3.13 139.19-3.13L139.19-3.13L139.19-3.13Q141.38-3.13 143.16-3.75L143.16-3.75L143.16-3.75Q144.94-4.38 146.14-5.50L146.14-5.50L146.14-5.50Q147.34-6.63 148.13-8.17L148.13-8.17L148.13-8.17Q148.91-9.72 149.66-11.56ZM201.56-11.56L201.56-11.56L201.56-11.56Q202.41-10.34 202.41-8.63L202.41-8.63L202.41-8.63Q202.41-6.91 202.17-5.66L202.17-5.66L202.17-5.66Q201.94-4.41 201.53-3.28L201.53-3.28L201.53-3.28Q200.59-0.81 199.16 0L199.16 0L174.03 0L174.03 0Q176.50-1.53 177.25-2.66L177.25-2.66L177.25-2.66Q178.69-4.78 178.69-8.16L178.69-8.16L178.69-8.16Q178.66-16.47 178.66-23.19L178.66-23.19L178.66-39.56L178.66-39.56Q178.66-44.09 177.16-46.22L177.16-46.22L177.16-46.22Q176.63-47 175.84-47.81L175.84-47.81L188.69-47.81L188.69-47.81Q186.84-45.16 186.59-42.34L186.59-42.34L186.59-42.34Q186.53-41.41 186.53-40.28L186.53-40.28L186.53-11.66L186.53-11.66Q186.53-5.81 187.16-4.67L187.16-4.67L187.16-4.67Q187.78-3.53 188.66-3.33L188.66-3.33L188.66-3.33Q189.53-3.13 191.31-3.13L191.31-3.13L191.31-3.13Q193.09-3.13 194.69-3.75L194.69-3.75L194.69-3.75Q196.28-4.38 197.53-5.50L197.53-5.50L197.53-5.50Q199.66-7.44 201.56-11.56ZM222.22-2.50L222.22-2.50L222.22-2.50Q228.22-2.50 229.97-17.13L229.97-17.13L229.97-17.13Q230.56-22.06 230.56-28.75L230.56-28.75L230.56-28.75Q230.56-45.31 222.16-45.31L222.16-45.31L222.16-45.31Q213.75-45.31 213.75-28.75L213.75-28.75L213.75-28.75Q213.75-9.22 218.78-4.09L218.78-4.09L218.78-4.09Q220.34-2.50 222.22-2.50ZM222.16 0.63L222.16 0.63L222.16 0.63Q213.84 0.63 209.63-7.19L209.63-7.19L209.63-7.19Q205.56-14.72 205.56-28.75L205.56-28.75L205.56-28.75Q205.56-43.34 214.53-47.13L214.53-47.13L214.53-47.13Q217.69-48.44 222.16-48.44L222.16-48.44L222.16-48.44Q234.97-48.44 237.81-37.06L237.81-37.06L237.81-37.06Q238.75-33.41 238.75-27.66L238.75-27.66L238.75-27.66Q238.75-21.91 237.75-16.45L237.75-16.45L237.75-16.45Q236.75-11 234.69-7.19L234.69-7.19L234.69-7.19Q230.47 0.63 222.16 0.63ZM255.53-26.50L255.53-26.50L255.53-20.03L255.53-20.03Q255.53-10.09 255.77-7.80L255.77-7.80L255.77-7.80Q256-5.50 256.22-4.50L256.22-4.50L256.22-4.50Q256.44-3.50 256.88-2.72L256.88-2.72L256.88-2.72Q257.56-1.44 259.50 0L259.50 0L243.66 0L243.66 0Q246.13-1.53 246.88-2.66L246.88-2.66L246.88-2.66Q248.31-4.78 248.31-8.16L248.31-8.16L248.31-8.16Q248.28-16.47 248.28-23.22L248.28-23.22L248.28-39.63L248.28-39.63Q248.28-44.28 246.81-46.38L246.81-46.38L246.81-46.38Q246.25-47.13 245.47-47.81L245.47-47.81L268.97-47.81L268.97-47.81Q271.09-47.06 271.88-42.56L271.88-42.56L271.88-42.56Q272.09-41.31 272.09-40.13L272.09-40.13L272.09-40.13Q272.09-37.69 271.38-36.25L271.38-36.25L269.69-39.63L269.69-39.63Q268-42.94 264.84-44.06L264.84-44.06L264.84-44.06Q263.09-44.69 260.91-44.69L260.91-44.69L260.91-44.69Q258.72-44.69 257.78-44.55L257.78-44.55L257.78-44.55Q256.84-44.41 256.34-43.88L256.34-43.88L256.34-43.88Q255.53-42.97 255.53-40.42L255.53-40.42L255.53-40.42Q255.53-37.88 255.66-36.89L255.66-36.89L255.66-36.89Q255.78-35.91 256.25-35.28L256.25-35.28L256.25-35.28Q257.22-34.06 260.34-34.06L260.34-34.06L270.16-34.06L270.16-34.06Q269.44-32.25 268.69-31.50L268.69-31.50L268.69-31.50Q267.19-30 264.63-30L264.63-30L264.63-30Q263.63-30 262.72-30.22L262.72-30.22L262.72-30.22Q261.03-30.63 259.75-30.63L259.75-30.63L259.75-30.63Q258.47-30.63 257.64-30.39L257.64-30.39L257.64-30.39Q256.81-30.16 256.34-29.66L256.34-29.66L256.34-29.66Q255.53-28.78 255.53-26.50ZM273.78-33.75L273.78-33.75L273.78-33.75Q273.03-35.56 273.03-38.03L273.03-38.03L273.03-38.03Q273.03-40.50 273.22-42.08L273.22-42.08L273.22-42.08Q273.41-43.66 273.72-44.94L273.72-44.94L273.72-44.94Q274.47-47.81 275.56-47.81L275.56-47.81L303.09-47.81L303.09-47.81Q304.91-47.81 305.53-42.44L305.53-42.44L305.53-42.44Q305.69-40.94 305.69-39.34L305.69-39.34L305.69-39.34Q305.69-35.59 304.88-33.75L304.88-33.75L304.88-33.75Q302.19-42.09 297.91-44.44L297.91-44.44L297.91-44.44Q296.94-45 296-45L296-45L296-45Q295.06-45 294.53-44.52L294.53-44.52L294.53-44.52Q294-44.03 293.66-42.97L293.66-42.97L293.66-42.97Q293.09-41.09 293.09-38.47L293.09-38.47L293.09-26.75L293.13-17.19L293.13-8.13L293.13-8.13Q293.13-5.06 293.92-3.61L293.92-3.61L293.92-3.61Q294.72-2.16 295.55-1.41L295.55-1.41L295.55-1.41Q296.38-0.66 297.50 0L297.50 0L281.53 0L281.53 0Q283.78-1.84 284.41-3.03L284.41-3.03L284.41-3.03Q285.56-5.19 285.56-8.13L285.56-8.13L285.56-36.28L285.56-36.28Q285.56-41.19 285.19-42.61L285.19-42.61L285.19-42.61Q284.81-44.03 284.28-44.52L284.28-44.52L284.28-44.52Q283.75-45 282.81-45L282.81-45L282.81-45Q281.88-45 280.91-44.45L280.91-44.45L280.91-44.45Q279.94-43.91 279.02-43.02L279.02-43.02L279.02-43.02Q278.09-42.13 277.27-40.95L277.27-40.95L277.27-40.95Q276.44-39.78 275.75-38.53L275.75-38.53L275.75-38.53Q274.41-36.06 273.78-33.75Z" fill="#f7c61d"></path></g></g><style>text {
  font-size: 64px;
  font-family: Arial Black;
  dominant-baseline: central;
  text-anchor: middle;
}</style></svg>